Coordinates
version=1
nRows=13
nColumns=38
inDegrees=no

Units are S.I. units (second, meters, Newtons, ...)
If the header above contains a line with 'inDegrees', this indicates whether rotational values are in degrees (yes) or radians (no).

endheader
time	pelvis_tilt	pelvis_list	pelvis_rotation	pelvis_tx	pelvis_ty	pelvis_tz	hip_flexion_r	hip_adduction_r	hip_rotation_r	knee_angle_r	ankle_angle_r	subtalar_angle_r	mtp_angle_r	hip_flexion_l	hip_adduction_l	hip_rotation_l	knee_angle_l	ankle_angle_l	subtalar_angle_l	mtp_angle_l	lumbar_extension	lumbar_bending	lumbar_rotation	arm_flex_r	arm_add_r	arm_rot_r	elbow_flex_r	pro_sup_r	wrist_flex_r	wrist_dev_r	arm_flex_l	arm_add_l	arm_rot_l	elbow_flex_l	pro_sup_l	wrist_flex_l	wrist_dev_l
0.81	-0.653823	1.48622	-0.773586	0.778333	1.28834	0.952694	0.399212	-0.0919031	-0.13684	0.877522	-0.256562	0	0	-0.176192	-0.060601	-0.188696	0.258489	-0.208854	0	0	-0.134778	0.097432	-0.0182769	-0.081801	-0.284453	0.115723	0.790871	1.56481	0	0	0.187676	-0.254725	0.528124	0.65964	1.56354	0	0
0.82	-0.672099	1.49087	-0.756186	0.778425	1.28023	0.951288	0.405349	-0.0919755	-0.133453	0.824832	-0.249354	0	0	-0.182242	-0.0592299	-0.188896	0.25758	-0.203934	0	0	-0.132617	0.0956996	-0.0210442	-0.0791041	-0.282977	0.112841	0.78518	1.56482	0	0	0.192163	-0.252378	0.512955	0.669551	1.56963	0	0
0.83	-0.684071	1.4963	-0.74493	0.778545	1.272	0.949691	0.410856	-0.0940699	-0.132897	0.771913	-0.241613	0	0	-0.188206	-0.0566808	-0.189069	0.256955	-0.198604	0	0	-0.130181	0.0929088	-0.023853	-0.0772137	-0.282113	0.111627	0.780415	1.56579	0	0	0.19637	-0.250102	0.498883	0.679875	1.5708	0	0
0.84	-0.691558	1.50205	-0.738357	0.778551	1.26362	0.947953	0.415509	-0.0974093	-0.134549	0.719516	-0.233102	0	0	-0.194532	-0.0536251	-0.188753	0.25645	-0.192903	0	0	-0.12747	0.0894377	-0.0258399	-0.0762507	-0.281521	0.111236	0.776058	1.56746	0	0	0.201066	-0.247961	0.487646	0.689454	1.5708	0	0
0.85	-0.699488	1.50805	-0.731617	0.778464	1.25513	0.946104	0.41911	-0.100893	-0.137065	0.666281	-0.224781	0	0	-0.200797	-0.0502782	-0.188256	0.256161	-0.187083	0	0	-0.124377	0.0858053	-0.026984	-0.0758671	-0.280705	0.109478	0.772166	1.56788	0	0	0.206497	-0.245554	0.478623	0.697447	1.5708	0	0
0.86	-0.701993	1.51395	-0.73036	0.778321	1.24652	0.944178	0.421396	-0.10457	-0.140725	0.61324	-0.216893	0	0	-0.207386	-0.0468203	-0.18826	0.256225	-0.181261	0	0	-0.121577	0.0818787	-0.0276351	-0.0759319	-0.27979	0.106951	0.768719	1.56745	0	0	0.212194	-0.243903	0.472317	0.705246	1.5708	0	0
0.87	-0.69571	1.5194	-0.737863	0.77808	1.23779	0.942241	0.422088	-0.108218	-0.14554	0.560745	-0.210165	0	0	-0.214559	-0.0436635	-0.188314	0.256655	-0.175687	0	0	-0.119348	0.0777562	-0.0278085	-0.076479	-0.279362	0.106317	0.765407	1.56887	0	0	0.218157	-0.242989	0.46831	0.712792	1.5708	0	0
0.88	-0.689693	1.52463	-0.745057	0.77774	1.22892	0.940268	0.422157	-0.11192	-0.152056	0.510323	-0.204618	0	0	-0.221562	-0.0410396	-0.188203	0.257571	-0.170443	0	0	-0.116909	0.0738692	-0.0276924	-0.0774326	-0.278695	0.104944	0.762493	1.56972	0	0	0.22425	-0.241747	0.465129	0.719051	1.5708	0	0
0.89	-0.684733	1.52948	-0.750964	0.777279	1.21991	0.938238	0.422673	-0.116601	-0.161967	0.466368	-0.198391	0	0	-0.228217	-0.039098	-0.188282	0.259523	-0.165205	0	0	-0.114284	0.0702749	-0.0272374	-0.0791565	-0.278119	0.103785	0.760295	1.5708	0	0	0.230434	-0.240516	0.463362	0.724333	1.5708	0	0
0.9	-0.742896	1.5338	-0.6942	0.776707	1.21095	0.936306	0.420539	-0.113032	-0.156758	0.413727	-0.194135	0	0	-0.232462	-0.0394122	-0.18818	0.263201	-0.159415	0	0	-0.110481	0.0690333	-0.026436	-0.0796451	-0.27832	0.10525	0.756266	1.5708	0	0	0.236878	-0.238341	0.462114	0.726823	1.5708	0	0
0.91	-0.803111	1.53671	-0.6347	0.776105	1.20183	0.934441	0.417414	-0.10948	-0.15429	0.368044	-0.190631	0	0	-0.237345	-0.0408417	-0.188776	0.26804	-0.154096	0	0	-0.107698	0.0686644	-0.0261133	-0.0802279	-0.278599	0.106723	0.752591	1.5708	0	0	0.242943	-0.236308	0.461318	0.728965	1.5708	0	0
0.92	-0.842008	1.53783	-0.595582	0.775521	1.19254	0.932746	0.411473	-0.105664	-0.153332	0.32719	-0.189408	0	0	-0.243797	-0.043414	-0.190097	0.273561	-0.148954	0	0	-0.106518	0.0693397	-0.0264427	-0.0809561	-0.278928	0.107977	0.749394	1.5708	0	0	0.248687	-0.234201	0.460736	0.730408	1.5708	0	0
0.93	-0.83124	1.53714	-0.605029	0.775	1.1831	0.931279	0.40354	-0.102395	-0.155348	0.296261	-0.189021	0	0	-0.252789	-0.0468637	-0.191869	0.279033	-0.144702	0	0	-0.107772	0.0706688	-0.0276058	-0.0818492	-0.279829	0.110459	0.747173	1.5708	0	0	0.254088	-0.232144	0.460445	0.731626	1.5708	0	0
